<svg xmlns="http://www.w3.org/2000/svg" xmlns:xlink="http://www.w3.org/1999/xlink" width="500" zoomAndPan="magnify" viewBox="0 0 375 374.999991" height="500" preserveAspectRatio="xMidYMid meet" version="1.0"><defs><g/><clipPath id="dc095c813c"><path d="M 55.46875 115.25 L 180.71875 115.25 L 180.71875 260 L 55.46875 260 Z M 55.46875 115.25 " clip-rule="nonzero"/></clipPath><clipPath id="017537d664"><path d="M 148.929688 116 L 168.464844 116 L 168.464844 164.5 L 148.929688 164.5 Z M 148.929688 116 " clip-rule="nonzero"/></clipPath><clipPath id="6da86f48f4"><path d="M 148.929688 154.242188 L 148.929688 117.496094 C 148.929688 117.003906 149.179688 116.542969 149.59375 116.277344 C 150.011719 116.007812 150.53125 115.96875 150.984375 116.167969 L 166.414062 123.097656 C 167.660156 123.660156 168.464844 124.902344 168.464844 126.269531 L 168.464844 163.015625 C 168.464844 163.507812 168.214844 163.96875 167.800781 164.238281 C 167.386719 164.503906 166.863281 164.542969 166.414062 164.34375 L 150.984375 157.414062 C 149.734375 156.851562 148.929688 155.613281 148.929688 154.242188 Z M 148.929688 154.242188 " clip-rule="nonzero"/></clipPath><clipPath id="b1c85c8798"><path d="M 89.660156 147.859375 L 146.96875 147.859375 L 146.96875 180.390625 L 89.660156 180.390625 Z M 89.660156 147.859375 " clip-rule="nonzero"/></clipPath><clipPath id="390efaff53"><path d="M 122.8125 149.941406 L 146.054688 175.40625 C 146.847656 176.277344 147.054688 177.535156 146.578125 178.613281 C 146.101562 179.695312 145.035156 180.390625 143.855469 180.390625 L 92.671875 180.390625 C 91.492188 180.390625 90.421875 179.695312 89.945312 178.613281 C 89.46875 177.535156 89.675781 176.277344 90.472656 175.40625 L 113.710938 149.941406 C 114.878906 148.660156 116.53125 147.933594 118.261719 147.933594 C 119.996094 147.933594 121.644531 148.660156 122.8125 149.941406 Z M 122.8125 149.941406 " clip-rule="nonzero"/></clipPath></defs><g clip-path="url(#dc095c813c)"><path fill="#004aad" d="M 159.101562 259.726562 L 77.003906 259.726562 C 76.300781 259.726562 75.601562 259.691406 74.902344 259.621094 C 74.203125 259.550781 73.507812 259.445312 72.820312 259.308594 C 72.132812 259.171875 71.449219 259 70.777344 258.796875 C 70.105469 258.589844 69.445312 258.355469 68.796875 258.085938 C 68.148438 257.816406 67.515625 257.515625 66.894531 257.183594 C 66.273438 256.851562 65.671875 256.492188 65.089844 256.101562 C 64.503906 255.710938 63.941406 255.292969 63.398438 254.847656 C 62.855469 254.402344 62.335938 253.929688 61.839844 253.433594 C 61.34375 252.9375 60.871094 252.417969 60.425781 251.875 C 59.980469 251.332031 59.5625 250.765625 59.171875 250.183594 C 58.78125 249.597656 58.417969 248.996094 58.089844 248.378906 C 57.757812 247.757812 57.457031 247.125 57.1875 246.476562 C 56.917969 245.828125 56.679688 245.167969 56.476562 244.492188 C 56.273438 243.820312 56.101562 243.140625 55.964844 242.453125 C 55.824219 241.765625 55.722656 241.070312 55.652344 240.371094 C 55.582031 239.671875 55.546875 238.972656 55.546875 238.269531 L 55.546875 180.71875 C 55.542969 179.363281 55.671875 178.019531 55.929688 176.6875 C 56.1875 175.355469 56.570312 174.0625 57.078125 172.804688 C 57.585938 171.550781 58.210938 170.355469 58.949219 169.21875 C 59.691406 168.082031 60.53125 167.027344 61.476562 166.054688 L 105.394531 120.636719 C 105.804688 120.210938 106.234375 119.808594 106.683594 119.425781 C 107.132812 119.046875 107.597656 118.6875 108.082031 118.351562 C 108.570312 118.019531 109.070312 117.707031 109.585938 117.425781 C 110.101562 117.140625 110.632812 116.882812 111.175781 116.652344 C 111.71875 116.421875 112.269531 116.21875 112.832031 116.042969 C 113.394531 115.867188 113.964844 115.71875 114.542969 115.601562 C 115.121094 115.484375 115.703125 115.394531 116.289062 115.335938 C 116.875 115.277344 117.464844 115.25 118.054688 115.25 C 118.644531 115.25 119.230469 115.277344 119.816406 115.335938 C 120.402344 115.394531 120.984375 115.484375 121.5625 115.601562 C 122.140625 115.71875 122.710938 115.867188 123.273438 116.042969 C 123.835938 116.21875 124.390625 116.421875 124.933594 116.652344 C 125.472656 116.882812 126.003906 117.140625 126.519531 117.425781 C 127.035156 117.707031 127.539062 118.019531 128.023438 118.351562 C 128.507812 118.6875 128.976562 119.046875 129.425781 119.425781 C 129.875 119.808594 130.304688 120.210938 130.710938 120.636719 L 178.722656 170.289062 C 179.023438 170.59375 179.292969 170.929688 179.527344 171.289062 C 179.761719 171.652344 179.957031 172.03125 180.117188 172.429688 C 180.277344 172.828125 180.394531 173.242188 180.472656 173.664062 C 180.550781 174.085938 180.585938 174.511719 180.578125 174.941406 C 180.574219 175.375 180.527344 175.796875 180.433594 176.21875 C 180.34375 176.640625 180.214844 177.046875 180.042969 177.441406 C 179.875 177.835938 179.664062 178.210938 179.421875 178.566406 C 179.175781 178.917969 178.898438 179.246094 178.589844 179.542969 C 178.28125 179.84375 177.945312 180.109375 177.582031 180.339844 C 177.222656 180.574219 176.839844 180.769531 176.441406 180.925781 C 176.039062 181.082031 175.628906 181.199219 175.207031 181.277344 C 174.78125 181.351562 174.355469 181.386719 173.925781 181.378906 C 173.496094 181.371094 173.070312 181.320312 172.652344 181.226562 C 172.230469 181.136719 171.824219 181.003906 171.429688 180.832031 C 171.035156 180.65625 170.664062 180.449219 170.308594 180.203125 C 169.957031 179.957031 169.632812 179.675781 169.335938 179.367188 L 121.320312 129.734375 C 121.109375 129.511719 120.878906 129.3125 120.628906 129.136719 C 120.378906 128.960938 120.113281 128.8125 119.832031 128.691406 C 119.550781 128.566406 119.261719 128.476562 118.960938 128.414062 C 118.664062 128.351562 118.359375 128.320312 118.054688 128.320312 C 117.746094 128.320312 117.445312 128.351562 117.144531 128.414062 C 116.84375 128.476562 116.554688 128.566406 116.273438 128.691406 C 115.992188 128.8125 115.726562 128.960938 115.476562 129.136719 C 115.226562 129.3125 114.996094 129.511719 114.789062 129.734375 L 70.867188 175.136719 C 70.140625 175.886719 69.585938 176.746094 69.199219 177.714844 C 68.8125 178.683594 68.621094 179.6875 68.625 180.734375 L 68.625 238.269531 C 68.628906 238.820312 68.683594 239.363281 68.789062 239.90625 C 68.898438 240.445312 69.058594 240.96875 69.269531 241.480469 C 69.480469 241.988281 69.738281 242.472656 70.046875 242.929688 C 70.351562 243.386719 70.699219 243.8125 71.089844 244.203125 C 71.480469 244.59375 71.902344 244.941406 72.359375 245.246094 C 72.820312 245.550781 73.300781 245.8125 73.8125 246.023438 C 74.320312 246.234375 74.84375 246.394531 75.386719 246.5 C 75.925781 246.609375 76.472656 246.664062 77.023438 246.664062 L 159.121094 246.664062 C 159.550781 246.664062 159.972656 246.707031 160.394531 246.789062 C 160.816406 246.875 161.222656 246.996094 161.621094 247.160156 C 162.015625 247.324219 162.390625 247.527344 162.75 247.765625 C 163.105469 248.003906 163.433594 248.273438 163.738281 248.578125 C 164.042969 248.878906 164.3125 249.210938 164.550781 249.566406 C 164.789062 249.921875 164.992188 250.300781 165.15625 250.695312 C 165.320312 251.09375 165.441406 251.5 165.527344 251.921875 C 165.609375 252.339844 165.652344 252.765625 165.652344 253.195312 C 165.652344 253.625 165.609375 254.046875 165.527344 254.46875 C 165.441406 254.890625 165.320312 255.296875 165.15625 255.695312 C 164.992188 256.089844 164.789062 256.464844 164.550781 256.824219 C 164.3125 257.179688 164.042969 257.507812 163.738281 257.8125 C 163.433594 258.117188 163.105469 258.386719 162.75 258.625 C 162.390625 258.863281 162.015625 259.0625 161.621094 259.226562 C 161.222656 259.394531 160.816406 259.515625 160.394531 259.601562 C 159.972656 259.683594 159.550781 259.726562 159.121094 259.726562 Z M 159.101562 259.726562 " fill-opacity="1" fill-rule="nonzero"/></g><g clip-path="url(#017537d664)"><g clip-path="url(#6da86f48f4)"><path fill="#071658" d="M 148.929688 165.265625 L 148.929688 115.28125 L 168.464844 115.28125 L 168.464844 165.265625 Z M 148.929688 165.265625 " fill-opacity="1" fill-rule="nonzero"/></g></g><g clip-path="url(#b1c85c8798)"><g clip-path="url(#390efaff53)"><path fill="#f65502" d="M 85.921875 144.953125 L 150.566406 144.953125 L 150.566406 180.390625 L 85.921875 180.390625 Z M 85.921875 144.953125 " fill-opacity="1" fill-rule="nonzero"/></g></g><g fill="#004aad" fill-opacity="1"><g transform="translate(88.2944, 210.334541)"><g><path d="M 10.703125 -10.78125 C 11.023438 -10.132812 11.1875 -9.410156 11.1875 -8.609375 C 11.1875 -7.804688 11.023438 -7.082031 10.703125 -6.4375 C 10.390625 -5.789062 9.984375 -5.28125 9.484375 -4.90625 C 8.460938 -4.113281 7.40625 -3.71875 6.3125 -3.71875 L 4 -3.71875 L 4 -1.640625 C 4 -1.359375 3.988281 -1.144531 3.96875 -1 C 3.957031 -0.863281 3.898438 -0.703125 3.796875 -0.515625 C 3.628906 -0.179688 3.148438 -0.015625 2.359375 -0.015625 C 1.492188 -0.015625 0.988281 -0.242188 0.84375 -0.703125 C 0.769531 -0.910156 0.734375 -1.226562 0.734375 -1.65625 L 0.734375 -11.890625 C 0.734375 -12.171875 0.742188 -12.378906 0.765625 -12.515625 C 0.785156 -12.660156 0.84375 -12.828125 0.9375 -13.015625 C 1.113281 -13.347656 1.59375 -13.515625 2.375 -13.515625 L 6.328125 -13.515625 C 7.410156 -13.515625 8.460938 -13.117188 9.484375 -12.328125 C 9.984375 -11.953125 10.390625 -11.4375 10.703125 -10.78125 Z M 6.328125 -6.984375 C 6.691406 -6.984375 7.050781 -7.117188 7.40625 -7.390625 C 7.769531 -7.660156 7.953125 -8.066406 7.953125 -8.609375 C 7.953125 -9.148438 7.769531 -9.554688 7.40625 -9.828125 C 7.050781 -10.109375 6.6875 -10.25 6.3125 -10.25 L 4 -10.25 L 4 -6.984375 Z M 6.328125 -6.984375 "/></g></g></g><g fill="#004aad" fill-opacity="1"><g transform="translate(102.47149, 210.334541)"><g><path d="M 4 -3.265625 L 9.671875 -3.265625 C 9.960938 -3.265625 10.175781 -3.253906 10.3125 -3.234375 C 10.457031 -3.210938 10.617188 -3.15625 10.796875 -3.0625 C 11.128906 -2.882812 11.296875 -2.40625 11.296875 -1.625 C 11.296875 -0.757812 11.070312 -0.253906 10.625 -0.109375 C 10.414062 -0.0351562 10.09375 0 9.65625 0 L 2.359375 0 C 1.492188 0 0.988281 -0.234375 0.84375 -0.703125 C 0.769531 -0.898438 0.734375 -1.210938 0.734375 -1.640625 L 0.734375 -11.890625 C 0.734375 -12.515625 0.847656 -12.941406 1.078125 -13.171875 C 1.316406 -13.398438 1.765625 -13.515625 2.421875 -13.515625 L 9.671875 -13.515625 C 9.960938 -13.515625 10.175781 -13.503906 10.3125 -13.484375 C 10.457031 -13.460938 10.617188 -13.40625 10.796875 -13.3125 C 11.128906 -13.132812 11.296875 -12.65625 11.296875 -11.875 C 11.296875 -11.007812 11.070312 -10.503906 10.625 -10.359375 C 10.414062 -10.285156 10.09375 -10.25 9.65625 -10.25 L 4 -10.25 L 4 -8.390625 L 7.65625 -8.390625 C 7.9375 -8.390625 8.144531 -8.378906 8.28125 -8.359375 C 8.425781 -8.335938 8.59375 -8.28125 8.78125 -8.1875 C 9.113281 -8.007812 9.28125 -7.53125 9.28125 -6.75 C 9.28125 -5.882812 9.046875 -5.378906 8.578125 -5.234375 C 8.367188 -5.160156 8.046875 -5.125 7.609375 -5.125 L 4 -5.125 Z M 4 -3.265625 "/></g></g></g><g fill="#004aad" fill-opacity="1"><g transform="translate(116.759187, 210.334541)"><g><path d="M 1.625 -13.53125 L 11.875 -13.53125 C 12.269531 -13.53125 12.554688 -13.484375 12.734375 -13.390625 C 12.921875 -13.296875 13.046875 -13.148438 13.109375 -12.953125 C 13.171875 -12.765625 13.203125 -12.507812 13.203125 -12.1875 C 13.203125 -11.863281 13.171875 -11.609375 13.109375 -11.421875 C 13.046875 -11.234375 12.941406 -11.101562 12.796875 -11.03125 C 12.578125 -10.914062 12.265625 -10.859375 11.859375 -10.859375 L 8.328125 -10.859375 L 8.328125 -1.578125 C 8.328125 -1.296875 8.316406 -1.085938 8.296875 -0.953125 C 8.285156 -0.816406 8.234375 -0.660156 8.140625 -0.484375 C 8.046875 -0.304688 7.878906 -0.179688 7.640625 -0.109375 C 7.410156 -0.0351562 7.101562 0 6.71875 0 C 6.34375 0 6.039062 -0.0351562 5.8125 -0.109375 C 5.582031 -0.179688 5.421875 -0.304688 5.328125 -0.484375 C 5.242188 -0.660156 5.191406 -0.820312 5.171875 -0.96875 C 5.148438 -1.113281 5.140625 -1.328125 5.140625 -1.609375 L 5.140625 -10.859375 L 1.609375 -10.859375 C 1.210938 -10.859375 0.921875 -10.90625 0.734375 -11 C 0.546875 -11.09375 0.421875 -11.234375 0.359375 -11.421875 C 0.304688 -11.617188 0.28125 -11.878906 0.28125 -12.203125 C 0.28125 -12.523438 0.304688 -12.78125 0.359375 -12.96875 C 0.421875 -13.15625 0.53125 -13.285156 0.6875 -13.359375 C 0.90625 -13.472656 1.21875 -13.53125 1.625 -13.53125 Z M 1.625 -13.53125 "/></g></g></g><g fill="#004aad" fill-opacity="1"><g transform="translate(132.7612, 210.334541)"><g><path d="M 4 -3.265625 L 9.671875 -3.265625 C 9.960938 -3.265625 10.175781 -3.253906 10.3125 -3.234375 C 10.457031 -3.210938 10.617188 -3.15625 10.796875 -3.0625 C 11.128906 -2.882812 11.296875 -2.40625 11.296875 -1.625 C 11.296875 -0.757812 11.070312 -0.253906 10.625 -0.109375 C 10.414062 -0.0351562 10.09375 0 9.65625 0 L 2.359375 0 C 1.492188 0 0.988281 -0.234375 0.84375 -0.703125 C 0.769531 -0.898438 0.734375 -1.210938 0.734375 -1.640625 L 0.734375 -11.890625 C 0.734375 -12.515625 0.847656 -12.941406 1.078125 -13.171875 C 1.316406 -13.398438 1.765625 -13.515625 2.421875 -13.515625 L 9.671875 -13.515625 C 9.960938 -13.515625 10.175781 -13.503906 10.3125 -13.484375 C 10.457031 -13.460938 10.617188 -13.40625 10.796875 -13.3125 C 11.128906 -13.132812 11.296875 -12.65625 11.296875 -11.875 C 11.296875 -11.007812 11.070312 -10.503906 10.625 -10.359375 C 10.414062 -10.285156 10.09375 -10.25 9.65625 -10.25 L 4 -10.25 L 4 -8.390625 L 7.65625 -8.390625 C 7.9375 -8.390625 8.144531 -8.378906 8.28125 -8.359375 C 8.425781 -8.335938 8.59375 -8.28125 8.78125 -8.1875 C 9.113281 -8.007812 9.28125 -7.53125 9.28125 -6.75 C 9.28125 -5.882812 9.046875 -5.378906 8.578125 -5.234375 C 8.367188 -5.160156 8.046875 -5.125 7.609375 -5.125 L 4 -5.125 Z M 4 -3.265625 "/></g></g></g><g fill="#004aad" fill-opacity="1"><g transform="translate(147.048895, 210.334541)"><g><path d="M 11.078125 -2.28125 C 11.265625 -1.84375 11.359375 -1.523438 11.359375 -1.328125 C 11.359375 -0.859375 10.976562 -0.460938 10.21875 -0.140625 C 9.820312 0.0234375 9.503906 0.109375 9.265625 0.109375 C 9.023438 0.109375 8.828125 0.0507812 8.671875 -0.0625 C 8.515625 -0.175781 8.398438 -0.296875 8.328125 -0.421875 C 8.210938 -0.660156 7.734375 -1.773438 6.890625 -3.765625 L 6.328125 -3.71875 L 4 -3.71875 L 4 -1.640625 C 4 -1.359375 3.988281 -1.144531 3.96875 -1 C 3.957031 -0.863281 3.898438 -0.703125 3.796875 -0.515625 C 3.628906 -0.179688 3.148438 -0.015625 2.359375 -0.015625 C 1.492188 -0.015625 0.988281 -0.242188 0.84375 -0.703125 C 0.769531 -0.910156 0.734375 -1.226562 0.734375 -1.65625 L 0.734375 -11.890625 C 0.734375 -12.171875 0.742188 -12.378906 0.765625 -12.515625 C 0.785156 -12.660156 0.84375 -12.828125 0.9375 -13.015625 C 1.113281 -13.347656 1.59375 -13.515625 2.375 -13.515625 L 6.359375 -13.515625 C 7.441406 -13.515625 8.492188 -13.117188 9.515625 -12.328125 C 10.003906 -11.953125 10.40625 -11.4375 10.71875 -10.78125 C 11.039062 -10.132812 11.203125 -9.410156 11.203125 -8.609375 C 11.203125 -7.222656 10.742188 -6.082031 9.828125 -5.1875 C 10.097656 -4.53125 10.515625 -3.5625 11.078125 -2.28125 Z M 4 -6.984375 L 6.359375 -6.984375 C 6.710938 -6.984375 7.066406 -7.117188 7.421875 -7.390625 C 7.785156 -7.660156 7.96875 -8.066406 7.96875 -8.609375 C 7.96875 -9.148438 7.785156 -9.554688 7.421875 -9.828125 C 7.066406 -10.109375 6.703125 -10.25 6.328125 -10.25 L 4 -10.25 Z M 4 -6.984375 "/></g></g></g><g fill="#004aad" fill-opacity="1"><g transform="translate(161.207548, 210.334541)"><g/></g></g><g fill="#004aad" fill-opacity="1"><g transform="translate(168.398316, 210.334541)"><g><path d="M 8.53125 -12.5625 L 13.515625 -2.265625 C 13.722656 -1.847656 13.828125 -1.535156 13.828125 -1.328125 C 13.828125 -0.878906 13.472656 -0.476562 12.765625 -0.125 C 12.335938 0.0820312 12.003906 0.1875 11.765625 0.1875 C 11.523438 0.1875 11.328125 0.128906 11.171875 0.015625 C 11.023438 -0.0859375 10.914062 -0.203125 10.84375 -0.328125 C 10.78125 -0.453125 10.6875 -0.640625 10.5625 -0.890625 L 9.609375 -2.875 L 4.5 -2.875 L 3.546875 -0.890625 C 3.421875 -0.640625 3.320312 -0.457031 3.25 -0.34375 C 3.1875 -0.238281 3.078125 -0.125 2.921875 0 C 2.765625 0.113281 2.566406 0.171875 2.328125 0.171875 C 2.085938 0.171875 1.757812 0.0664062 1.34375 -0.140625 C 0.632812 -0.484375 0.28125 -0.878906 0.28125 -1.328125 C 0.28125 -1.535156 0.382812 -1.847656 0.59375 -2.265625 L 5.5625 -12.578125 C 5.695312 -12.859375 5.898438 -13.082031 6.171875 -13.25 C 6.453125 -13.425781 6.75 -13.515625 7.0625 -13.515625 C 7.726562 -13.515625 8.21875 -13.195312 8.53125 -12.5625 Z M 7.046875 -8.125 L 5.828125 -5.609375 L 8.28125 -5.609375 Z M 7.046875 -8.125 "/></g></g></g><g fill="#004aad" fill-opacity="1"><g transform="translate(185.027078, 210.334541)"><g><path d="M 10.359375 -7.25 C 11.085938 -6.382812 11.453125 -5.414062 11.453125 -4.34375 C 11.421875 -3.113281 10.992188 -2.082031 10.171875 -1.25 C 9.359375 -0.425781 8.367188 -0.015625 7.203125 -0.015625 L 2.359375 -0.015625 C 1.492188 -0.015625 0.988281 -0.25 0.84375 -0.71875 C 0.769531 -0.925781 0.734375 -1.242188 0.734375 -1.671875 L 0.734375 -11.90625 C 0.734375 -12.207031 0.742188 -12.425781 0.765625 -12.5625 C 0.785156 -12.695312 0.84375 -12.851562 0.9375 -13.03125 C 1.113281 -13.363281 1.59375 -13.53125 2.375 -13.53125 L 7.03125 -13.53125 C 8.15625 -13.53125 9.097656 -13.140625 9.859375 -12.359375 C 10.660156 -11.554688 11.0625 -10.597656 11.0625 -9.484375 C 11.0625 -8.671875 10.828125 -7.925781 10.359375 -7.25 Z M 8.1875 -4.53125 C 8.1875 -4.832031 8.148438 -5.066406 8.078125 -5.234375 C 8.015625 -5.410156 7.90625 -5.535156 7.75 -5.609375 C 7.5 -5.703125 7.148438 -5.75 6.703125 -5.75 C 6.265625 -5.75 5.9375 -5.832031 5.71875 -6 C 5.5 -6.175781 5.390625 -6.53125 5.390625 -7.0625 C 5.390625 -7.601562 5.5 -7.957031 5.71875 -8.125 C 5.945312 -8.300781 6.328125 -8.390625 6.859375 -8.390625 C 7.347656 -8.390625 7.644531 -8.519531 7.75 -8.78125 C 7.78125 -8.914062 7.796875 -9.132812 7.796875 -9.4375 C 7.796875 -9.75 7.691406 -9.960938 7.484375 -10.078125 C 7.285156 -10.203125 6.984375 -10.265625 6.578125 -10.265625 L 4 -10.265625 L 4 -3.28125 L 7.03125 -3.28125 C 7.800781 -3.28125 8.1875 -3.695312 8.1875 -4.53125 Z M 8.1875 -4.53125 "/></g></g></g><g fill="#004aad" fill-opacity="1"><g transform="translate(199.462242, 210.334541)"><g><path d="M 0.734375 -11.890625 C 0.734375 -12.171875 0.742188 -12.378906 0.765625 -12.515625 C 0.785156 -12.660156 0.84375 -12.828125 0.9375 -13.015625 C 1.113281 -13.347656 1.59375 -13.515625 2.375 -13.515625 C 3.238281 -13.515625 3.75 -13.285156 3.90625 -12.828125 C 3.96875 -12.617188 4 -12.300781 4 -11.875 L 4 -1.625 C 4 -1.332031 3.988281 -1.117188 3.96875 -0.984375 C 3.957031 -0.847656 3.898438 -0.6875 3.796875 -0.5 C 3.628906 -0.164062 3.148438 0 2.359375 0 C 1.492188 0 0.988281 -0.234375 0.84375 -0.703125 C 0.769531 -0.898438 0.734375 -1.210938 0.734375 -1.640625 Z M 0.734375 -11.890625 "/></g></g></g><g fill="#004aad" fill-opacity="1"><g transform="translate(206.726745, 210.334541)"><g><path d="M 8.53125 -12.5625 L 13.515625 -2.265625 C 13.722656 -1.847656 13.828125 -1.535156 13.828125 -1.328125 C 13.828125 -0.878906 13.472656 -0.476562 12.765625 -0.125 C 12.335938 0.0820312 12.003906 0.1875 11.765625 0.1875 C 11.523438 0.1875 11.328125 0.128906 11.171875 0.015625 C 11.023438 -0.0859375 10.914062 -0.203125 10.84375 -0.328125 C 10.78125 -0.453125 10.6875 -0.640625 10.5625 -0.890625 L 9.609375 -2.875 L 4.5 -2.875 L 3.546875 -0.890625 C 3.421875 -0.640625 3.320312 -0.457031 3.25 -0.34375 C 3.1875 -0.238281 3.078125 -0.125 2.921875 0 C 2.765625 0.113281 2.566406 0.171875 2.328125 0.171875 C 2.085938 0.171875 1.757812 0.0664062 1.34375 -0.140625 C 0.632812 -0.484375 0.28125 -0.878906 0.28125 -1.328125 C 0.28125 -1.535156 0.382812 -1.847656 0.59375 -2.265625 L 5.5625 -12.578125 C 5.695312 -12.859375 5.898438 -13.082031 6.171875 -13.25 C 6.453125 -13.425781 6.75 -13.515625 7.0625 -13.515625 C 7.726562 -13.515625 8.21875 -13.195312 8.53125 -12.5625 Z M 7.046875 -8.125 L 5.828125 -5.609375 L 8.28125 -5.609375 Z M 7.046875 -8.125 "/></g></g></g><g fill="#004aad" fill-opacity="1"><g transform="translate(223.355502, 210.334541)"><g><path d="M 2.375 -13.53125 L 5.796875 -13.515625 C 7.578125 -13.515625 9.140625 -12.867188 10.484375 -11.578125 C 11.835938 -10.296875 12.515625 -8.71875 12.515625 -6.84375 C 12.515625 -4.96875 11.851562 -3.359375 10.53125 -2.015625 C 9.21875 -0.679688 7.617188 -0.015625 5.734375 -0.015625 L 2.359375 -0.015625 C 1.609375 -0.015625 1.140625 -0.171875 0.953125 -0.484375 C 0.804688 -0.734375 0.734375 -1.125 0.734375 -1.65625 L 0.734375 -11.90625 C 0.734375 -12.207031 0.742188 -12.425781 0.765625 -12.5625 C 0.785156 -12.695312 0.84375 -12.851562 0.9375 -13.03125 C 1.113281 -13.363281 1.59375 -13.53125 2.375 -13.53125 Z M 5.796875 -3.28125 C 6.671875 -3.28125 7.460938 -3.609375 8.171875 -4.265625 C 8.890625 -4.921875 9.25 -5.742188 9.25 -6.734375 C 9.25 -7.734375 8.898438 -8.566406 8.203125 -9.234375 C 7.515625 -9.910156 6.703125 -10.25 5.765625 -10.25 L 4 -10.25 L 4 -3.28125 Z M 5.796875 -3.28125 "/></g></g></g><g fill="#004aad" fill-opacity="1"><g transform="translate(238.859808, 210.334541)"><g><path d="M 4 -3.265625 L 9.671875 -3.265625 C 9.960938 -3.265625 10.175781 -3.253906 10.3125 -3.234375 C 10.457031 -3.210938 10.617188 -3.15625 10.796875 -3.0625 C 11.128906 -2.882812 11.296875 -2.40625 11.296875 -1.625 C 11.296875 -0.757812 11.070312 -0.253906 10.625 -0.109375 C 10.414062 -0.0351562 10.09375 0 9.65625 0 L 2.359375 0 C 1.492188 0 0.988281 -0.234375 0.84375 -0.703125 C 0.769531 -0.898438 0.734375 -1.210938 0.734375 -1.640625 L 0.734375 -11.890625 C 0.734375 -12.515625 0.847656 -12.941406 1.078125 -13.171875 C 1.316406 -13.398438 1.765625 -13.515625 2.421875 -13.515625 L 9.671875 -13.515625 C 9.960938 -13.515625 10.175781 -13.503906 10.3125 -13.484375 C 10.457031 -13.460938 10.617188 -13.40625 10.796875 -13.3125 C 11.128906 -13.132812 11.296875 -12.65625 11.296875 -11.875 C 11.296875 -11.007812 11.070312 -10.503906 10.625 -10.359375 C 10.414062 -10.285156 10.09375 -10.25 9.65625 -10.25 L 4 -10.25 L 4 -8.390625 L 7.65625 -8.390625 C 7.9375 -8.390625 8.144531 -8.378906 8.28125 -8.359375 C 8.425781 -8.335938 8.59375 -8.28125 8.78125 -8.1875 C 9.113281 -8.007812 9.28125 -7.53125 9.28125 -6.75 C 9.28125 -5.882812 9.046875 -5.378906 8.578125 -5.234375 C 8.367188 -5.160156 8.046875 -5.125 7.609375 -5.125 L 4 -5.125 Z M 4 -3.265625 "/></g></g></g><g fill="#004aad" fill-opacity="1"><g transform="translate(253.147503, 210.334541)"><g/></g></g><g fill="#004aad" fill-opacity="1"><g transform="translate(260.338272, 210.334541)"><g><path d="M 11.90625 0.015625 C 10.84375 0.015625 9.785156 -0.257812 8.734375 -0.8125 C 7.566406 -0.175781 6.390625 0.140625 5.203125 0.140625 C 2.035156 0.140625 0.453125 -1.171875 0.453125 -3.796875 C 0.453125 -5.160156 1.160156 -6.425781 2.578125 -7.59375 C 2.085938 -8.6875 1.84375 -9.675781 1.84375 -10.5625 C 1.84375 -11.789062 2.210938 -12.695312 2.953125 -13.28125 C 3.691406 -13.875 4.679688 -14.171875 5.921875 -14.171875 C 7.160156 -14.171875 8.097656 -13.875 8.734375 -13.28125 C 9.378906 -12.695312 9.703125 -11.894531 9.703125 -10.875 C 9.703125 -10.019531 9.347656 -9.25 8.640625 -8.5625 C 8.128906 -8.039062 7.40625 -7.46875 6.46875 -6.84375 C 7.195312 -5.882812 7.984375 -5.070312 8.828125 -4.40625 C 9.171875 -4.9375 9.410156 -5.476562 9.546875 -6.03125 C 9.671875 -6.570312 10.222656 -6.84375 11.203125 -6.84375 C 11.628906 -6.84375 11.945312 -6.785156 12.15625 -6.671875 C 12.375 -6.566406 12.5 -6.453125 12.53125 -6.328125 C 12.5625 -6.210938 12.570312 -6.0625 12.5625 -5.875 C 12.507812 -4.945312 12.125 -4.019531 11.40625 -3.09375 C 11.59375 -3.0625 11.765625 -3.046875 11.921875 -3.046875 C 12.878906 -3.046875 13.359375 -2.554688 13.359375 -1.578125 C 13.359375 -0.910156 13.25 -0.476562 13.03125 -0.28125 C 12.8125 -0.0820312 12.4375 0.015625 11.90625 0.015625 Z M 4.75 -10.78125 C 4.75 -10.34375 4.851562 -9.847656 5.0625 -9.296875 C 5.644531 -9.660156 6.078125 -9.960938 6.359375 -10.203125 C 6.648438 -10.453125 6.796875 -10.691406 6.796875 -10.921875 C 6.796875 -11.453125 6.5 -11.71875 5.90625 -11.71875 C 5.132812 -11.71875 4.75 -11.40625 4.75 -10.78125 Z M 5.328125 -2.578125 C 5.640625 -2.578125 5.914062 -2.601562 6.15625 -2.65625 C 5.445312 -3.289062 4.769531 -4.050781 4.125 -4.9375 C 3.84375 -4.582031 3.703125 -4.210938 3.703125 -3.828125 C 3.703125 -2.992188 4.242188 -2.578125 5.328125 -2.578125 Z M 5.328125 -2.578125 "/></g></g></g><g fill="#004aad" fill-opacity="1"><g transform="translate(276.653655, 210.334541)"><g/></g></g><g fill="#004aad" fill-opacity="1"><g transform="translate(283.844435, 210.334541)"><g><path d="M 9.1875 -3.546875 L 9.515625 -3.78125 C 9.929688 -4.019531 10.226562 -4.140625 10.40625 -4.140625 C 10.78125 -4.140625 11.191406 -3.796875 11.640625 -3.109375 C 11.910156 -2.679688 12.046875 -2.335938 12.046875 -2.078125 C 12.046875 -1.828125 11.960938 -1.613281 11.796875 -1.4375 C 11.628906 -1.269531 11.429688 -1.117188 11.203125 -0.984375 C 10.984375 -0.847656 10.769531 -0.71875 10.5625 -0.59375 C 10.363281 -0.46875 9.953125 -0.304688 9.328125 -0.109375 C 8.703125 0.0859375 8.097656 0.1875 7.515625 0.1875 C 6.929688 0.1875 6.335938 0.109375 5.734375 -0.046875 C 5.140625 -0.203125 4.523438 -0.457031 3.890625 -0.8125 C 3.265625 -1.175781 2.695312 -1.617188 2.1875 -2.140625 C 1.6875 -2.671875 1.269531 -3.34375 0.9375 -4.15625 C 0.613281 -4.976562 0.453125 -5.867188 0.453125 -6.828125 C 0.453125 -7.785156 0.613281 -8.648438 0.9375 -9.421875 C 1.257812 -10.203125 1.664062 -10.847656 2.15625 -11.359375 C 2.65625 -11.867188 3.226562 -12.296875 3.875 -12.640625 C 5.070312 -13.304688 6.28125 -13.640625 7.5 -13.640625 C 8.082031 -13.640625 8.671875 -13.550781 9.265625 -13.375 C 9.859375 -13.195312 10.3125 -13.015625 10.625 -12.828125 L 11.0625 -12.578125 C 11.28125 -12.441406 11.453125 -12.332031 11.578125 -12.25 C 11.898438 -11.988281 12.0625 -11.691406 12.0625 -11.359375 C 12.0625 -11.035156 11.929688 -10.695312 11.671875 -10.34375 C 11.191406 -9.675781 10.757812 -9.34375 10.375 -9.34375 C 10.15625 -9.34375 9.84375 -9.476562 9.4375 -9.75 C 8.925781 -10.164062 8.238281 -10.375 7.375 -10.375 C 6.570312 -10.375 5.785156 -10.097656 5.015625 -9.546875 C 4.648438 -9.273438 4.34375 -8.894531 4.09375 -8.40625 C 3.84375 -7.914062 3.71875 -7.359375 3.71875 -6.734375 C 3.71875 -6.117188 3.84375 -5.5625 4.09375 -5.0625 C 4.34375 -4.570312 4.65625 -4.1875 5.03125 -3.90625 C 5.78125 -3.363281 6.5625 -3.09375 7.375 -3.09375 C 7.757812 -3.09375 8.117188 -3.140625 8.453125 -3.234375 C 8.785156 -3.335938 9.03125 -3.441406 9.1875 -3.546875 Z M 9.1875 -3.546875 "/></g></g></g><g fill="#004aad" fill-opacity="1"><g transform="translate(298.887899, 210.334541)"><g><path d="M 7.078125 -13.6875 C 8.898438 -13.6875 10.476562 -13.023438 11.8125 -11.703125 C 13.15625 -10.390625 13.828125 -8.757812 13.828125 -6.8125 C 13.828125 -4.863281 13.1875 -3.203125 11.90625 -1.828125 C 10.632812 -0.460938 9.0625 0.21875 7.1875 0.21875 C 5.320312 0.21875 3.734375 -0.453125 2.421875 -1.796875 C 1.109375 -3.148438 0.453125 -4.765625 0.453125 -6.640625 C 0.453125 -7.660156 0.632812 -8.613281 1 -9.5 C 1.375 -10.394531 1.867188 -11.140625 2.484375 -11.734375 C 3.097656 -12.335938 3.804688 -12.8125 4.609375 -13.15625 C 5.410156 -13.507812 6.234375 -13.6875 7.078125 -13.6875 Z M 3.71875 -6.734375 C 3.71875 -5.640625 4.070312 -4.75 4.78125 -4.0625 C 5.488281 -3.382812 6.28125 -3.046875 7.15625 -3.046875 C 8.03125 -3.046875 8.816406 -3.375 9.515625 -4.03125 C 10.210938 -4.695312 10.5625 -5.585938 10.5625 -6.703125 C 10.5625 -7.828125 10.207031 -8.726562 9.5 -9.40625 C 8.789062 -10.082031 8 -10.421875 7.125 -10.421875 C 6.257812 -10.421875 5.472656 -10.078125 4.765625 -9.390625 C 4.066406 -8.710938 3.71875 -7.828125 3.71875 -6.734375 Z M 3.71875 -6.734375 "/></g></g></g><g fill="#071658" fill-opacity="1"><g transform="translate(88.2944, 235.240591)"><g><path d="M 4.03125 -2.484375 L 1.90625 -2.484375 L 1.90625 0 L 0.546875 0 L 0.546875 -6.1875 L 4.125 -6.1875 L 4.125 -4.953125 L 1.90625 -4.953125 L 1.90625 -3.71875 L 4.03125 -3.71875 Z M 4.03125 -2.484375 "/></g></g></g><g fill="#071658" fill-opacity="1"><g transform="translate(100.160616, 235.240591)"><g><path d="M 5.3125 -3.09375 C 5.3125 -3.414062 5.226562 -3.710938 5.0625 -3.984375 C 4.894531 -4.265625 4.671875 -4.488281 4.390625 -4.65625 C 4.117188 -4.832031 3.820312 -4.921875 3.5 -4.921875 C 3.1875 -4.921875 2.890625 -4.832031 2.609375 -4.65625 C 2.328125 -4.488281 2.101562 -4.265625 1.9375 -3.984375 C 1.769531 -3.710938 1.6875 -3.414062 1.6875 -3.09375 C 1.6875 -2.78125 1.769531 -2.484375 1.9375 -2.203125 C 2.101562 -1.929688 2.328125 -1.707031 2.609375 -1.53125 C 2.890625 -1.351562 3.1875 -1.265625 3.5 -1.265625 C 3.820312 -1.265625 4.117188 -1.351562 4.390625 -1.53125 C 4.671875 -1.707031 4.894531 -1.929688 5.0625 -2.203125 C 5.226562 -2.484375 5.3125 -2.78125 5.3125 -3.09375 Z M 6.6875 -3.09375 C 6.6875 -2.664062 6.597656 -2.257812 6.421875 -1.875 C 6.253906 -1.488281 6.023438 -1.148438 5.734375 -0.859375 C 5.441406 -0.566406 5.101562 -0.332031 4.71875 -0.15625 C 4.332031 0.0078125 3.925781 0.09375 3.5 0.09375 C 3.070312 0.09375 2.664062 0.0078125 2.28125 -0.15625 C 1.894531 -0.332031 1.554688 -0.566406 1.265625 -0.859375 C 0.972656 -1.148438 0.738281 -1.488281 0.5625 -1.875 C 0.394531 -2.257812 0.3125 -2.664062 0.3125 -3.09375 C 0.3125 -3.519531 0.394531 -3.925781 0.5625 -4.3125 C 0.738281 -4.695312 0.972656 -5.035156 1.265625 -5.328125 C 1.554688 -5.617188 1.894531 -5.847656 2.28125 -6.015625 C 2.664062 -6.191406 3.070312 -6.28125 3.5 -6.28125 C 3.925781 -6.28125 4.332031 -6.191406 4.71875 -6.015625 C 5.101562 -5.847656 5.441406 -5.617188 5.734375 -5.328125 C 6.023438 -5.035156 6.253906 -4.695312 6.421875 -4.3125 C 6.597656 -3.925781 6.6875 -3.519531 6.6875 -3.09375 Z M 6.6875 -3.09375 "/></g></g></g><g fill="#071658" fill-opacity="1"><g transform="translate(114.447399, 235.240591)"><g><path d="M 4.15625 -6.1875 L 5.515625 -6.1875 L 5.515625 -2.40625 C 5.515625 -1.582031 5.289062 -0.957031 4.84375 -0.53125 C 4.394531 -0.113281 3.769531 0.09375 2.96875 0.09375 C 2.15625 0.09375 1.523438 -0.113281 1.078125 -0.53125 C 0.628906 -0.957031 0.40625 -1.582031 0.40625 -2.40625 L 0.40625 -6.1875 L 1.765625 -6.1875 L 1.765625 -2.609375 C 1.765625 -2.179688 1.847656 -1.847656 2.015625 -1.609375 C 2.191406 -1.378906 2.507812 -1.265625 2.96875 -1.265625 C 3.4375 -1.265625 3.75 -1.378906 3.90625 -1.609375 C 4.070312 -1.847656 4.15625 -2.179688 4.15625 -2.609375 Z M 4.15625 -6.1875 "/></g></g></g><g fill="#071658" fill-opacity="1"><g transform="translate(127.660392, 235.240591)"><g><path d="M 5.40625 0 L 4.03125 0 L 1.90625 -3.859375 L 1.90625 0 L 0.546875 0 L 0.546875 -6.1875 L 1.90625 -6.1875 L 4.03125 -2.328125 L 4.03125 -6.1875 L 5.40625 -6.1875 Z M 5.40625 0 "/></g></g></g><g fill="#071658" fill-opacity="1"><g transform="translate(140.891582, 235.240591)"><g><path d="M 1.890625 -1.25 L 2.296875 -1.25 C 2.648438 -1.25 2.957031 -1.332031 3.21875 -1.5 C 3.488281 -1.664062 3.695312 -1.882812 3.84375 -2.15625 C 3.988281 -2.4375 4.0625 -2.75 4.0625 -3.09375 C 4.0625 -3.4375 3.988281 -3.742188 3.84375 -4.015625 C 3.695312 -4.296875 3.488281 -4.515625 3.21875 -4.671875 C 2.957031 -4.835938 2.648438 -4.921875 2.296875 -4.921875 L 1.890625 -4.921875 Z M 0.546875 -6.1875 L 2.375 -6.1875 C 2.8125 -6.1875 3.21875 -6.101562 3.59375 -5.9375 C 3.96875 -5.78125 4.296875 -5.5625 4.578125 -5.28125 C 4.859375 -5.007812 5.070312 -4.6875 5.21875 -4.3125 C 5.375 -3.9375 5.453125 -3.53125 5.453125 -3.09375 C 5.453125 -2.65625 5.375 -2.25 5.21875 -1.875 C 5.070312 -1.5 4.859375 -1.171875 4.578125 -0.890625 C 4.304688 -0.609375 3.976562 -0.390625 3.59375 -0.234375 C 3.21875 -0.078125 2.8125 0 2.375 0 L 0.546875 0 Z M 0.546875 -6.1875 "/></g></g></g><g fill="#071658" fill-opacity="1"><g transform="translate(153.949879, 235.240591)"><g><path d="M 4.125 -1.234375 L 4.125 0 L 0.546875 0 L 0.546875 -6.1875 L 4.125 -6.1875 L 4.125 -4.953125 L 1.90625 -4.953125 L 1.90625 -3.71875 L 4.03125 -3.71875 L 4.03125 -2.484375 L 1.90625 -2.484375 L 1.90625 -1.234375 Z M 4.125 -1.234375 "/></g></g></g><g fill="#071658" fill-opacity="1"><g transform="translate(165.907088, 235.240591)"><g><path d="M 1.890625 -1.25 L 2.296875 -1.25 C 2.648438 -1.25 2.957031 -1.332031 3.21875 -1.5 C 3.488281 -1.664062 3.695312 -1.882812 3.84375 -2.15625 C 3.988281 -2.4375 4.0625 -2.75 4.0625 -3.09375 C 4.0625 -3.4375 3.988281 -3.742188 3.84375 -4.015625 C 3.695312 -4.296875 3.488281 -4.515625 3.21875 -4.671875 C 2.957031 -4.835938 2.648438 -4.921875 2.296875 -4.921875 L 1.890625 -4.921875 Z M 0.546875 -6.1875 L 2.375 -6.1875 C 2.8125 -6.1875 3.21875 -6.101562 3.59375 -5.9375 C 3.96875 -5.78125 4.296875 -5.5625 4.578125 -5.28125 C 4.859375 -5.007812 5.070312 -4.6875 5.21875 -4.3125 C 5.375 -3.9375 5.453125 -3.53125 5.453125 -3.09375 C 5.453125 -2.65625 5.375 -2.25 5.21875 -1.875 C 5.070312 -1.5 4.859375 -1.171875 4.578125 -0.890625 C 4.304688 -0.609375 3.976562 -0.390625 3.59375 -0.234375 C 3.21875 -0.078125 2.8125 0 2.375 0 L 0.546875 0 Z M 0.546875 -6.1875 "/></g></g></g><g fill="#071658" fill-opacity="1"><g transform="translate(178.965385, 235.240591)"><g/></g></g><g fill="#071658" fill-opacity="1"><g transform="translate(188.520222, 235.240591)"><g><path d="M 4.34375 0 L -0.140625 0 L 2.3125 -3.125 C 2.394531 -3.226562 2.484375 -3.335938 2.578125 -3.453125 C 2.679688 -3.578125 2.765625 -3.707031 2.828125 -3.84375 C 2.898438 -3.988281 2.9375 -4.128906 2.9375 -4.265625 C 2.9375 -4.484375 2.867188 -4.65625 2.734375 -4.78125 C 2.609375 -4.914062 2.441406 -4.984375 2.234375 -4.984375 C 2.015625 -4.984375 1.832031 -4.910156 1.6875 -4.765625 C 1.550781 -4.617188 1.476562 -4.382812 1.46875 -4.0625 L 0.1875 -4.0625 C 0.195312 -4.46875 0.273438 -4.835938 0.421875 -5.171875 C 0.578125 -5.503906 0.804688 -5.769531 1.109375 -5.96875 C 1.410156 -6.175781 1.785156 -6.28125 2.234375 -6.28125 C 2.628906 -6.28125 2.976562 -6.195312 3.28125 -6.03125 C 3.582031 -5.863281 3.816406 -5.625 3.984375 -5.3125 C 4.148438 -5.007812 4.234375 -4.660156 4.234375 -4.265625 C 4.234375 -3.953125 4.175781 -3.671875 4.0625 -3.421875 C 3.957031 -3.171875 3.816406 -2.9375 3.640625 -2.71875 C 3.472656 -2.5 3.300781 -2.28125 3.125 -2.0625 L 2.46875 -1.234375 L 4.34375 -1.234375 Z M 4.34375 0 "/></g></g></g><g fill="#071658" fill-opacity="1"><g transform="translate(200.504733, 235.240591)"><g><path d="M 2.796875 -5.03125 C 2.578125 -5.03125 2.394531 -4.96875 2.25 -4.84375 C 2.101562 -4.71875 1.988281 -4.554688 1.90625 -4.359375 C 1.820312 -4.160156 1.765625 -3.945312 1.734375 -3.71875 C 1.703125 -3.488281 1.6875 -3.273438 1.6875 -3.078125 C 1.6875 -2.867188 1.703125 -2.648438 1.734375 -2.421875 C 1.765625 -2.191406 1.820312 -1.976562 1.90625 -1.78125 C 1.988281 -1.582031 2.101562 -1.421875 2.25 -1.296875 C 2.394531 -1.179688 2.578125 -1.125 2.796875 -1.125 C 3.015625 -1.125 3.195312 -1.179688 3.34375 -1.296875 C 3.488281 -1.421875 3.601562 -1.582031 3.6875 -1.78125 C 3.769531 -1.976562 3.828125 -2.1875 3.859375 -2.40625 C 3.898438 -2.632812 3.921875 -2.851562 3.921875 -3.0625 C 3.921875 -3.257812 3.898438 -3.472656 3.859375 -3.703125 C 3.828125 -3.929688 3.769531 -4.144531 3.6875 -4.34375 C 3.613281 -4.550781 3.503906 -4.71875 3.359375 -4.84375 C 3.210938 -4.96875 3.023438 -5.03125 2.796875 -5.03125 Z M 2.796875 0.109375 C 2.441406 0.109375 2.128906 0.0390625 1.859375 -0.09375 C 1.585938 -0.226562 1.351562 -0.410156 1.15625 -0.640625 C 0.957031 -0.867188 0.796875 -1.117188 0.671875 -1.390625 C 0.546875 -1.671875 0.453125 -1.957031 0.390625 -2.25 C 0.335938 -2.539062 0.3125 -2.816406 0.3125 -3.078125 C 0.3125 -3.296875 0.335938 -3.546875 0.390625 -3.828125 C 0.441406 -4.109375 0.523438 -4.390625 0.640625 -4.671875 C 0.753906 -4.960938 0.910156 -5.226562 1.109375 -5.46875 C 1.304688 -5.707031 1.539062 -5.898438 1.8125 -6.046875 C 2.09375 -6.203125 2.421875 -6.28125 2.796875 -6.28125 C 3.171875 -6.28125 3.5 -6.203125 3.78125 -6.046875 C 4.0625 -5.898438 4.296875 -5.707031 4.484375 -5.46875 C 4.679688 -5.226562 4.835938 -4.960938 4.953125 -4.671875 C 5.066406 -4.390625 5.148438 -4.109375 5.203125 -3.828125 C 5.253906 -3.546875 5.28125 -3.296875 5.28125 -3.078125 C 5.28125 -2.816406 5.25 -2.539062 5.1875 -2.25 C 5.132812 -1.957031 5.046875 -1.671875 4.921875 -1.390625 C 4.796875 -1.117188 4.632812 -0.867188 4.4375 -0.640625 C 4.25 -0.410156 4.019531 -0.226562 3.75 -0.09375 C 3.476562 0.0390625 3.160156 0.109375 2.796875 0.109375 Z M 2.796875 0.109375 "/></g></g></g><g fill="#071658" fill-opacity="1"><g transform="translate(213.39014, 235.240591)"><g><path d="M 2.796875 -5.03125 C 2.578125 -5.03125 2.394531 -4.96875 2.25 -4.84375 C 2.101562 -4.71875 1.988281 -4.554688 1.90625 -4.359375 C 1.820312 -4.160156 1.765625 -3.945312 1.734375 -3.71875 C 1.703125 -3.488281 1.6875 -3.273438 1.6875 -3.078125 C 1.6875 -2.867188 1.703125 -2.648438 1.734375 -2.421875 C 1.765625 -2.191406 1.820312 -1.976562 1.90625 -1.78125 C 1.988281 -1.582031 2.101562 -1.421875 2.25 -1.296875 C 2.394531 -1.179688 2.578125 -1.125 2.796875 -1.125 C 3.015625 -1.125 3.195312 -1.179688 3.34375 -1.296875 C 3.488281 -1.421875 3.601562 -1.582031 3.6875 -1.78125 C 3.769531 -1.976562 3.828125 -2.1875 3.859375 -2.40625 C 3.898438 -2.632812 3.921875 -2.851562 3.921875 -3.0625 C 3.921875 -3.257812 3.898438 -3.472656 3.859375 -3.703125 C 3.828125 -3.929688 3.769531 -4.144531 3.6875 -4.34375 C 3.613281 -4.550781 3.503906 -4.71875 3.359375 -4.84375 C 3.210938 -4.96875 3.023438 -5.03125 2.796875 -5.03125 Z M 2.796875 0.109375 C 2.441406 0.109375 2.128906 0.0390625 1.859375 -0.09375 C 1.585938 -0.226562 1.351562 -0.410156 1.15625 -0.640625 C 0.957031 -0.867188 0.796875 -1.117188 0.671875 -1.390625 C 0.546875 -1.671875 0.453125 -1.957031 0.390625 -2.25 C 0.335938 -2.539062 0.3125 -2.816406 0.3125 -3.078125 C 0.3125 -3.296875 0.335938 -3.546875 0.390625 -3.828125 C 0.441406 -4.109375 0.523438 -4.390625 0.640625 -4.671875 C 0.753906 -4.960938 0.910156 -5.226562 1.109375 -5.46875 C 1.304688 -5.707031 1.539062 -5.898438 1.8125 -6.046875 C 2.09375 -6.203125 2.421875 -6.28125 2.796875 -6.28125 C 3.171875 -6.28125 3.5 -6.203125 3.78125 -6.046875 C 4.0625 -5.898438 4.296875 -5.707031 4.484375 -5.46875 C 4.679688 -5.226562 4.835938 -4.960938 4.953125 -4.671875 C 5.066406 -4.390625 5.148438 -4.109375 5.203125 -3.828125 C 5.253906 -3.546875 5.28125 -3.296875 5.28125 -3.078125 C 5.28125 -2.816406 5.25 -2.539062 5.1875 -2.25 C 5.132812 -1.957031 5.046875 -1.671875 4.921875 -1.390625 C 4.796875 -1.117188 4.632812 -0.867188 4.4375 -0.640625 C 4.25 -0.410156 4.019531 -0.226562 3.75 -0.09375 C 3.476562 0.0390625 3.160156 0.109375 2.796875 0.109375 Z M 2.796875 0.109375 "/></g></g></g><g fill="#071658" fill-opacity="1"><g transform="translate(226.275548, 235.240591)"><g><path d="M 0.140625 -1.8125 L 1.515625 -1.8125 C 1.554688 -1.5625 1.65625 -1.382812 1.8125 -1.28125 C 1.976562 -1.1875 2.179688 -1.140625 2.421875 -1.140625 C 2.660156 -1.140625 2.851562 -1.21875 3 -1.375 C 3.15625 -1.53125 3.234375 -1.722656 3.234375 -1.953125 C 3.234375 -2.222656 3.148438 -2.421875 2.984375 -2.546875 C 2.828125 -2.679688 2.625 -2.75 2.375 -2.75 L 1.8125 -2.75 L 1.8125 -3.796875 L 2.375 -3.796875 C 2.582031 -3.796875 2.734375 -3.863281 2.828125 -4 C 2.921875 -4.132812 2.96875 -4.300781 2.96875 -4.5 C 2.96875 -4.675781 2.90625 -4.816406 2.78125 -4.921875 C 2.65625 -5.023438 2.5 -5.078125 2.3125 -5.078125 C 1.882812 -5.078125 1.65625 -4.859375 1.625 -4.421875 L 0.25 -4.421875 C 0.269531 -4.816406 0.375 -5.148438 0.5625 -5.421875 C 0.757812 -5.703125 1.003906 -5.914062 1.296875 -6.0625 C 1.597656 -6.207031 1.925781 -6.28125 2.28125 -6.28125 C 2.65625 -6.28125 2.992188 -6.21875 3.296875 -6.09375 C 3.597656 -5.96875 3.84375 -5.773438 4.03125 -5.515625 C 4.21875 -5.253906 4.3125 -4.914062 4.3125 -4.5 C 4.3125 -4.300781 4.257812 -4.09375 4.15625 -3.875 C 4.0625 -3.664062 3.925781 -3.5 3.75 -3.375 C 4.050781 -3.238281 4.265625 -3.035156 4.390625 -2.765625 C 4.515625 -2.503906 4.578125 -2.234375 4.578125 -1.953125 C 4.578125 -1.515625 4.476562 -1.144531 4.28125 -0.84375 C 4.082031 -0.539062 3.820312 -0.304688 3.5 -0.140625 C 3.175781 0.015625 2.8125 0.09375 2.40625 0.09375 C 2.019531 0.09375 1.65625 0.0351562 1.3125 -0.078125 C 0.976562 -0.203125 0.703125 -0.40625 0.484375 -0.6875 C 0.273438 -0.96875 0.160156 -1.34375 0.140625 -1.8125 Z M 0.140625 -1.8125 "/></g></g></g></svg>